<svg xmlns="http://www.w3.org/2000/svg" xmlns:xlink="http://www.w3.org/1999/xlink" width="1080" zoomAndPan="magnify" viewBox="0 0 810 809.999993" height="1080" preserveAspectRatio="xMidYMid meet" version="1.0"><defs><clipPath id="92c5f52d9c"><path d="M 0 229.835938 L 810 229.835938 L 810 580.085938 L 0 580.085938 Z M 0 229.835938 " clip-rule="nonzero"/></clipPath></defs><g clip-path="url(#92c5f52d9c)"><path fill="#000000" d="M 479.421875 434.863281 L 569.910156 434.863281 L 715.203125 580.15625 L 809.632812 580.15625 L 650.933594 422.050781 C 655.46875 419.488281 659.609375 416.53125 663.15625 412.980469 C 670.648438 405.6875 675.972656 396.421875 678.730469 385.183594 C 681.6875 374.144531 683.066406 360.9375 683.066406 345.953125 L 683.066406 328.410156 C 683.066406 310.664062 681.097656 295.484375 677.351562 282.671875 C 673.605469 270.054688 667.691406 259.804688 659.804688 252.113281 C 651.917969 244.425781 641.667969 238.707031 629.050781 235.160156 C 616.433594 231.613281 601.253906 229.835938 583.90625 229.835938 C 452.214844 229.835938 320.523438 229.835938 188.636719 229.835938 C 171.289062 229.835938 156.109375 231.613281 143.492188 235.160156 C 130.875 238.707031 120.625 244.425781 112.738281 252.113281 C 104.851562 259.804688 99.136719 270.054688 95.191406 282.671875 C 91.445312 295.289062 89.476562 310.46875 89.476562 328.410156 L 89.476562 345.953125 C 89.476562 360.9375 90.855469 374.144531 93.8125 385.183594 C 96.769531 396.226562 101.894531 405.492188 109.386719 412.980469 C 116.878906 420.277344 127.128906 425.796875 139.945312 429.34375 C 152.757812 432.894531 168.921875 434.667969 188.441406 434.667969 L 355.222656 434.667969 C 368.824219 434.667969 378.878906 437.035156 384.992188 441.566406 C 391.101562 446.101562 394.257812 453.988281 394.257812 464.832031 L 394.257812 483.753906 C 394.257812 495.78125 391.101562 503.667969 384.992188 507.609375 C 378.878906 511.550781 368.824219 513.523438 354.628906 513.523438 L 54.1875 513.523438 L 0.367188 579.761719 L 359.164062 579.761719 C 378.679688 579.761719 395.242188 577.988281 408.648438 574.636719 C 422.25 571.285156 433.289062 565.964844 441.765625 558.667969 C 450.242188 551.574219 456.550781 542.109375 460.296875 530.675781 C 464.042969 519.242188 466.015625 505.242188 466.015625 488.882812 L 466.015625 461.085938 C 466.015625 445.3125 464.042969 431.90625 460.296875 420.472656 C 456.550781 409.234375 450.441406 399.96875 441.765625 392.675781 C 433.289062 385.578125 422.25 380.257812 408.648438 377.101562 C 395.042969 373.949219 378.679688 372.171875 359.164062 372.171875 L 195.539062 372.171875 C 182.921875 372.171875 174.046875 369.808594 168.921875 365.273438 C 163.796875 360.738281 161.234375 352.855469 161.234375 342.011719 L 161.234375 330.773438 C 161.234375 316.777344 163.996094 307.511719 169.710938 302.78125 C 175.429688 298.246094 184.101562 295.878906 196.128906 295.878906 C 323.085938 295.878906 450.046875 295.878906 577.007812 295.878906 C 589.03125 295.878906 597.707031 298.246094 603.421875 302.78125 C 609.140625 307.3125 611.898438 316.777344 611.898438 330.773438 L 611.898438 342.011719 C 611.898438 353.050781 609.335938 360.738281 604.210938 365.273438 C 599.085938 369.808594 590.214844 372.171875 577.597656 372.171875 L 447.484375 372.171875 C 460.296875 382.820312 469.167969 396.226562 474.492188 411.996094 C 476.660156 419.882812 478.433594 427.375 479.421875 434.863281 " fill-opacity="1" fill-rule="evenodd"/><path fill="#000000" d="M 479.421875 434.863281 L 569.910156 434.863281 L 715.203125 580.15625 L 809.632812 580.15625 L 650.933594 422.050781 C 655.46875 419.488281 659.609375 416.53125 663.15625 412.980469 C 670.648438 405.6875 675.972656 396.421875 678.730469 385.183594 C 681.6875 374.144531 683.066406 360.9375 683.066406 345.953125 L 683.066406 328.410156 C 683.066406 310.664062 681.097656 295.484375 677.351562 282.671875 C 673.605469 270.054688 667.691406 259.804688 659.804688 252.113281 C 651.917969 244.425781 641.667969 238.707031 629.050781 235.160156 C 616.433594 231.613281 601.253906 229.835938 583.90625 229.835938 C 452.214844 229.835938 320.523438 229.835938 188.636719 229.835938 C 171.289062 229.835938 156.109375 231.613281 143.492188 235.160156 C 130.875 238.707031 120.625 244.425781 112.738281 252.113281 C 104.851562 259.804688 99.136719 270.054688 95.191406 282.671875 C 91.445312 295.289062 89.476562 310.46875 89.476562 328.410156 L 89.476562 345.953125 C 89.476562 360.9375 90.855469 374.144531 93.8125 385.183594 C 96.769531 396.226562 101.894531 405.492188 109.386719 412.980469 C 116.878906 420.277344 127.128906 425.796875 139.945312 429.34375 C 152.757812 432.894531 168.921875 434.667969 188.441406 434.667969 L 355.222656 434.667969 C 368.824219 434.667969 378.878906 437.035156 384.992188 441.566406 C 391.101562 446.101562 394.257812 453.988281 394.257812 464.832031 L 394.257812 483.753906 C 394.257812 495.78125 391.101562 503.667969 384.992188 507.609375 C 378.878906 511.550781 368.824219 513.523438 354.628906 513.523438 L 54.1875 513.523438 L 0.367188 579.761719 L 359.164062 579.761719 C 378.679688 579.761719 395.242188 577.988281 408.648438 574.636719 C 422.25 571.285156 433.289062 565.964844 441.765625 558.667969 C 450.242188 551.574219 456.550781 542.109375 460.296875 530.675781 C 464.042969 519.242188 466.015625 505.242188 466.015625 488.882812 L 466.015625 461.085938 C 466.015625 445.3125 464.042969 431.90625 460.296875 420.472656 C 456.550781 409.234375 450.441406 399.96875 441.765625 392.675781 C 433.289062 385.578125 422.25 380.257812 408.648438 377.101562 C 395.042969 373.949219 378.679688 372.171875 359.164062 372.171875 L 195.539062 372.171875 C 182.921875 372.171875 174.046875 369.808594 168.921875 365.273438 C 163.796875 360.738281 161.234375 352.855469 161.234375 342.011719 L 161.234375 330.773438 C 161.234375 316.777344 163.996094 307.511719 169.710938 302.78125 C 175.429688 298.246094 184.101562 295.878906 196.128906 295.878906 C 323.085938 295.878906 450.046875 295.878906 577.007812 295.878906 C 589.03125 295.878906 597.707031 298.246094 603.421875 302.78125 C 609.140625 307.3125 611.898438 316.777344 611.898438 330.773438 L 611.898438 342.011719 C 611.898438 353.050781 609.335938 360.738281 604.210938 365.273438 C 599.085938 369.808594 590.214844 372.171875 577.597656 372.171875 L 447.484375 372.171875 C 460.296875 382.820312 469.167969 396.226562 474.492188 411.996094 C 476.660156 419.882812 478.433594 427.375 479.421875 434.863281 " fill-opacity="1" fill-rule="evenodd"/></g></svg>